<mxfile host="app.diagrams.net" modified="2024-06-14T12:33:45.638Z" agent="Mozilla/5.0 (X11; CrOS x86_64 14541.0.0) AppleWebKit/537.36 (KHTML, like Gecko) Chrome/124.0.0.0 Safari/537.36" version="24.5.4" etag="A71Hl4dLZXpvSjcqC1V4" type="github">
  <diagram name="Page-1" id="1z_IG4z15QiZZduefvlV">
    <mxGraphModel>
      <root>
        <mxCell id="0" />
        <mxCell id="1" parent="0" />
      </root>
    </mxGraphModel>
  </diagram>
</mxfile>
